<svg width="20" height="19" viewBox="0 0 20 19" fill="none" xmlns="http://www.w3.org/2000/svg">
<path d="M6.875 2.9375V4.5H13.125V2.9375C13.125 2.76562 12.9844 2.625 12.8125 2.625H7.1875C7.01562 2.625 6.875 2.76562 6.875 2.9375ZM5 4.5V2.9375C5 1.73047 5.98047 0.75 7.1875 0.75H12.8125C14.0195 0.75 15 1.73047 15 2.9375V4.5H16.0977C16.5938 4.5 17.0703 4.69922 17.4219 5.05078L19.4492 7.07812C19.8008 7.42969 20 7.90625 20 8.40234V11.375H15V10.75C15 10.0586 14.4414 9.5 13.75 9.5C13.0586 9.5 12.5 10.0586 12.5 10.75V11.375H7.5V10.75C7.5 10.0586 6.94141 9.5 6.25 9.5C5.55859 9.5 5 10.0586 5 10.75V11.375H0V8.40234C0 7.90625 0.199219 7.42969 0.550781 7.07812L2.57812 5.05078C2.92969 4.69922 3.40625 4.5 3.90234 4.5H5ZM0 15.75V12.625H5V13.25C5 13.9414 5.55859 14.5 6.25 14.5C6.94141 14.5 7.5 13.9414 7.5 13.25V12.625H12.5V13.25C12.5 13.9414 13.0586 14.5 13.75 14.5C14.4414 14.5 15 13.9414 15 13.25V12.625H20V15.75C20 17.1289 18.8789 18.25 17.5 18.25H2.5C1.12109 18.25 0 17.1289 0 15.75Z" fill="#BC2024"/>
</svg>
