<svg width="15" height="15" viewBox="0 0 15 15" fill="none" xmlns="http://www.w3.org/2000/svg">
<path d="M11.7031 2.5C11.9352 2.5 12.1577 2.59219 12.3218 2.75628C12.4859 2.92038 12.5781 3.14294 12.5781 3.375C12.5781 3.60706 12.4859 3.82962 12.3218 3.99372C12.1577 4.15781 11.9352 4.25 11.7031 4.25C11.4711 4.25 11.2485 4.15781 11.0844 3.99372C10.9203 3.82962 10.8281 3.60706 10.8281 3.375C10.8281 3.14294 10.9203 2.92038 11.0844 2.75628C11.2485 2.59219 11.4711 2.5 11.7031 2.5ZM11.7031 6C12.3993 6 13.067 5.72344 13.5593 5.23116C14.0516 4.73887 14.3281 4.07119 14.3281 3.375C14.3281 2.67881 14.0516 2.01113 13.5593 1.51884C13.067 1.02656 12.3993 0.75 11.7031 0.75C11.0069 0.75 10.3393 1.02656 9.84697 1.51884C9.35469 2.01113 9.07812 2.67881 9.07812 3.375C9.07812 4.07119 9.35469 4.73887 9.84697 5.23116C10.3393 5.72344 11.0069 6 11.7031 6ZM2.95312 3.8125C2.95312 3.08789 3.54102 2.5 4.26562 2.5C4.99023 2.5 5.57812 3.08789 5.57812 3.8125V8.31055C5.57812 8.78359 5.77227 9.18281 5.99648 9.47266C6.28359 9.84453 6.45312 10.3066 6.45312 10.8125C6.45312 12.0211 5.47422 13 4.26562 13C3.05703 13 2.07812 12.0211 2.07812 10.8125C2.07812 10.3066 2.24766 9.84453 2.53477 9.47539C2.75898 9.18281 2.95312 8.78359 2.95312 8.31055V3.8125ZM4.26562 0.75C2.57305 0.75 1.20312 2.12266 1.20312 3.8125V8.31055C1.20312 8.31328 1.20039 8.31875 1.19766 8.32695C1.19219 8.34336 1.17578 8.3707 1.15117 8.40352C0.634375 9.06797 0.328125 9.90469 0.328125 10.8125C0.328125 12.9863 2.0918 14.75 4.26562 14.75C6.43945 14.75 8.20312 12.9863 8.20312 10.8125C8.20312 9.90469 7.89687 9.06797 7.38008 8.40352C7.35547 8.3707 7.33906 8.34336 7.33359 8.32695C7.33086 8.31875 7.32812 8.31328 7.32812 8.31055V3.8125C7.32812 2.12266 5.9582 0.75 4.26562 0.75ZM4.26562 12.125C4.99023 12.125 5.57812 11.5371 5.57812 10.8125C5.57812 10.241 5.21172 9.7543 4.70312 9.57383V3.8125C4.70312 3.57188 4.50625 3.375 4.26562 3.375C4.025 3.375 3.82812 3.57188 3.82812 3.8125V9.57383C3.31953 9.7543 2.95312 10.241 2.95312 10.8125C2.95312 11.5371 3.54102 12.125 4.26562 12.125Z" fill="#9CA3AF"/>
</svg>
