<svg width="15" height="16" viewBox="0 0 15 16" fill="none" xmlns="http://www.w3.org/2000/svg">
<path d="M7.25 8C8.31087 8 9.32828 7.57857 10.0784 6.82843C10.8286 6.07828 11.25 5.06087 11.25 4C11.25 2.93913 10.8286 1.92172 10.0784 1.17157C9.32828 0.421427 8.31087 0 7.25 0C6.18913 0 5.17172 0.421427 4.42157 1.17157C3.67143 1.92172 3.25 2.93913 3.25 4C3.25 5.06087 3.67143 6.07828 4.42157 6.82843C5.17172 7.57857 6.18913 8 7.25 8ZM5.82188 9.5C2.74375 9.5 0.25 11.9937 0.25 15.0719C0.25 15.5844 0.665625 16 1.17813 16H13.3219C13.8344 16 14.25 15.5844 14.25 15.0719C14.25 11.9937 11.7563 9.5 8.67813 9.5H5.82188Z" fill="#9CA3AF"/>
</svg>
