<svg width="22" height="17" viewBox="0 0 22 17" fill="none" xmlns="http://www.w3.org/2000/svg">
<path d="M9.875 0.375C9.25273 0.375 8.75 0.877734 8.75 1.5V1.58086V5.08242C8.75 5.2793 8.5918 5.4375 8.39492 5.4375C8.26836 5.4375 8.14883 5.3707 8.08555 5.2582L6.39805 2.30859C3.79297 3.5918 2 6.27422 2 9.375V11.625H20V9.29063C19.9684 6.225 18.1824 3.58125 15.602 2.30859L13.9145 5.2582C13.8512 5.3707 13.7316 5.4375 13.6051 5.4375C13.4082 5.4375 13.25 5.2793 13.25 5.08242V1.58086V1.5C13.25 0.877734 12.7473 0.375 12.125 0.375H9.875ZM1.45859 12.75C1.13516 12.75 0.875 13.0102 0.875 13.3336C0.875 13.4988 0.945313 13.657 1.07891 13.752C1.8418 14.3109 4.80547 16.125 11 16.125C17.1945 16.125 20.1582 14.3109 20.9211 13.752C21.0547 13.6535 21.125 13.4988 21.125 13.3336C21.125 13.0102 20.8648 12.75 20.5414 12.75H1.45859Z" fill="#D1D5DB"/>
</svg>
