<svg width="14" height="21" viewBox="0 0 14 21" fill="none" xmlns="http://www.w3.org/2000/svg">
<path d="M2.38977 17.9118L1.87506 21H12.9927L12.478 17.9118C11.9595 17.9118 2.7517 17.9118 2.38977 17.9118Z" fill="#D1D5DB"/>
<path d="M4.96338 12.9707V16.6765H9.90454V12.9707H4.96338ZM8.66925 15.4413H6.19867V14.206H8.66925V15.4413Z" fill="#D1D5DB"/>
<path d="M13.6102 5.06479V14.8236L12.6838 16.6765H11.1397V11.7354H3.72793V16.6765H2.02941L0.639709 14.8236V6.17655C0.69435 4.77961 2.69074 4.79159 2.7397 6.17655V10.5001H3.97499V1.97657C4.01106 0.995092 5.42081 0.994022 5.45734 1.97657V10.5001H6.69263V0.741282C6.69263 0.345989 7.00227 0.022755 7.39221 0.00134335C7.81279 -0.0240213 8.17497 0.313007 8.17497 0.741282V10.5001H9.41026V2.59422C9.44679 1.61187 10.8564 1.61261 10.8926 2.59422V10.5001H12.1279V5.06479C12.1644 4.08249 13.5741 4.08323 13.6102 5.06479Z" fill="#D1D5DB"/>
</svg>
