<svg width="12" height="15" viewBox="0 0 12 15" fill="none" xmlns="http://www.w3.org/2000/svg">
<path d="M9.66328 1.96953C9.82461 1.59493 9.7043 1.15743 9.37344 0.9168C9.04258 0.676175 8.59141 0.69805 8.28242 0.966019L1.28242 7.09102C1.00898 7.33164 0.910547 7.71719 1.03906 8.05625C1.16758 8.39532 1.4957 8.625 1.85938 8.625H4.9082L2.80547 13.5305C2.64414 13.9051 2.76445 14.3426 3.09531 14.5832C3.42617 14.8238 3.87734 14.802 4.18633 14.534L11.1863 8.40899C11.4598 8.16836 11.5582 7.78282 11.4297 7.44375C11.3012 7.10469 10.9758 6.87774 10.6094 6.87774H7.56055L9.66328 1.96953Z" fill="white"/>
</svg>
