<svg width="15" height="15" viewBox="0 0 15 15" fill="none" xmlns="http://www.w3.org/2000/svg">
<path d="M6.4957 1.91758L5.46484 2.30313C5.38281 2.3332 5.32812 2.4125 5.32812 2.5C5.32812 2.5875 5.38281 2.6668 5.46484 2.69687L6.4957 3.08242L6.88125 4.11328C6.91133 4.19531 6.99062 4.25 7.07812 4.25C7.16563 4.25 7.24492 4.19531 7.275 4.11328L7.66055 3.08242L8.69141 2.69687C8.77344 2.6668 8.82812 2.5875 8.82812 2.5C8.82812 2.4125 8.77344 2.3332 8.69141 2.30313L7.66055 1.91758L7.275 0.886719C7.24492 0.804688 7.16563 0.75 7.07812 0.75C6.99062 0.75 6.91133 0.804688 6.88125 0.886719L6.4957 1.91758ZM1.33867 11.5617C0.827344 12.073 0.827344 12.9043 1.33867 13.4184L2.28477 14.3645C2.79609 14.8758 3.62734 14.8758 4.14141 14.3645L14.5676 3.93555C15.0789 3.42422 15.0789 2.59297 14.5676 2.07891L13.6215 1.13555C13.1102 0.624219 12.2789 0.624219 11.7648 1.13555L1.33867 11.5617ZM13.3289 3.00859L10.4578 5.87969L9.8207 5.24258L12.6918 2.37148L13.3289 3.00859ZM0.283203 3.95469C0.160156 4.00117 0.078125 4.11875 0.078125 4.25C0.078125 4.38125 0.160156 4.49883 0.283203 4.54531L1.82812 5.125L2.40781 6.66992C2.4543 6.79297 2.57188 6.875 2.70312 6.875C2.83437 6.875 2.95195 6.79297 2.99844 6.66992L3.57812 5.125L5.12305 4.54531C5.24609 4.49883 5.32812 4.38125 5.32812 4.25C5.32812 4.11875 5.24609 4.00117 5.12305 3.95469L3.57812 3.375L2.99844 1.83008C2.95195 1.70703 2.83437 1.625 2.70312 1.625C2.57188 1.625 2.4543 1.70703 2.40781 1.83008L1.82812 3.375L0.283203 3.95469ZM9.9082 10.9547C9.78516 11.0012 9.70312 11.1187 9.70312 11.25C9.70312 11.3813 9.78516 11.4988 9.9082 11.5453L11.4531 12.125L12.0328 13.6699C12.0793 13.793 12.1969 13.875 12.3281 13.875C12.4594 13.875 12.577 13.793 12.6234 13.6699L13.2031 12.125L14.748 11.5453C14.8711 11.4988 14.9531 11.3813 14.9531 11.25C14.9531 11.1187 14.8711 11.0012 14.748 10.9547L13.2031 10.375L12.6234 8.83008C12.577 8.70703 12.4594 8.625 12.3281 8.625C12.1969 8.625 12.0793 8.70703 12.0328 8.83008L11.4531 10.375L9.9082 10.9547Z" fill="#9CA3AF"/>
</svg>
