<svg width="15" height="15" viewBox="0 0 15 15" fill="none" xmlns="http://www.w3.org/2000/svg">
<path d="M7.81835 6.64531L0.832025 13.6289C0.574994 13.8859 0.574994 14.3016 0.832025 14.5559C1.08906 14.8102 1.50468 14.8129 1.75898 14.5559L3.31757 12.9973H5.17695C6.53593 12.9973 7.8539 12.6035 8.97773 11.8762C9.28124 11.6793 9.12812 11.2473 8.76445 11.2473C8.62499 11.2473 8.51288 11.1352 8.51288 10.9957C8.51288 10.8836 8.58671 10.7879 8.69062 10.7551L10.9055 10.0906C10.9738 10.0688 11.0367 10.0332 11.0887 9.98125L11.7012 9.36875C11.9773 9.09258 11.7805 8.62227 11.3922 8.62227H10.5117C10.3723 8.62227 10.2601 8.51016 10.2601 8.3707C10.2601 8.25859 10.334 8.16289 10.4379 8.13008L13.5004 7.21133C13.6098 7.17852 13.7027 7.10469 13.7547 7.00078C14.05 6.42656 14.2031 5.78398 14.2031 5.125C14.2031 4.00391 13.7574 2.9293 12.9644 2.13633L12.8141 1.98594C12.0238 1.1957 10.9492 0.75 9.82812 0.75C8.70702 0.75 7.63242 1.1957 6.83945 1.98867L4.0039 4.82422C2.6914 6.13672 1.95312 7.9168 1.95312 9.77344V11.2855L7.13749 6.10391C7.30703 5.93438 7.58593 5.93438 7.75546 6.10391C7.90312 6.25156 7.92226 6.47578 7.81562 6.64531H7.81835Z" fill="#9CA3AF"/>
</svg>
