<svg width="12" height="15" viewBox="0 0 12 15" fill="none" xmlns="http://www.w3.org/2000/svg">
<path d="M9.375 2.0625C9.375 1.7144 9.23672 1.38056 8.99058 1.13442C8.74444 0.888281 8.4106 0.75 8.0625 0.75C7.7144 0.75 7.38056 0.888281 7.13442 1.13442C6.88828 1.38056 6.75 1.7144 6.75 2.0625C6.75 2.4106 6.88828 2.74444 7.13442 2.99058C7.38056 3.23672 7.7144 3.375 8.0625 3.375C8.4106 3.375 8.74444 3.23672 8.99058 2.99058C9.23672 2.74444 9.375 2.4106 9.375 2.0625ZM4.06211 5.54883C4.33281 5.27812 4.70195 5.125 5.0875 5.125C5.13945 5.125 5.19141 5.12773 5.24062 5.1332L4.3875 7.69531C4.1332 8.46094 4.43398 9.30313 5.12031 9.73242L7.47734 11.2063L6.78281 13.6344C6.64883 14.0992 6.91953 14.5832 7.38438 14.7172C7.84922 14.8512 8.3332 14.5805 8.46719 14.1156L9.25195 11.3703C9.41328 10.807 9.18086 10.2055 8.68594 9.89648L7.13281 8.92578L7.97773 6.67266L8.11719 7.00898C8.52734 7.98789 9.48164 8.625 10.5426 8.625H11.125C11.609 8.625 12 8.23398 12 7.75C12 7.26602 11.609 6.875 11.125 6.875H10.5426C10.1898 6.875 9.86992 6.66172 9.73594 6.33633L9.56367 5.92617C9.16445 4.96641 8.35781 4.23359 7.3625 3.92734L6.03086 3.51719C5.72734 3.42422 5.41016 3.375 5.09023 3.375C4.24258 3.375 3.42773 3.71133 2.82891 4.31289L2.19453 4.94453C1.85273 5.28633 1.85273 5.84141 2.19453 6.1832C2.53633 6.525 3.09141 6.525 3.4332 6.1832L4.06484 5.55156L4.06211 5.54883ZM3.11875 10.375H1.5C1.01602 10.375 0.625 10.766 0.625 11.25C0.625 11.734 1.01602 12.125 1.5 12.125H3.40313C3.92266 12.125 4.39297 11.8188 4.60352 11.3457L4.91797 10.6375L4.6582 10.4734C4.17969 10.1754 3.82422 9.74063 3.62188 9.2457L3.11875 10.375Z" fill="#9CA3AF"/>
</svg>
