<svg width="19" height="16" viewBox="0 0 19 16" fill="none" xmlns="http://www.w3.org/2000/svg">
<path d="M18.7437 7.98438C18.7437 8.54688 18.275 8.9875 17.7437 8.9875H16.7437L16.7656 13.9937C16.7656 14.0781 16.7594 14.1625 16.75 14.2469V14.75C16.75 15.4406 16.1906 16 15.5 16H15C14.9656 16 14.9313 16 14.8969 15.9969C14.8531 16 14.8094 16 14.7656 16H13.75H13C12.3094 16 11.75 15.4406 11.75 14.75V14V12C11.75 11.4469 11.3031 11 10.75 11H8.75C8.19688 11 7.75 11.4469 7.75 12V14V14.75C7.75 15.4406 7.19063 16 6.5 16H5.75H4.75313C4.70625 16 4.65937 15.9969 4.6125 15.9937C4.575 15.9969 4.5375 16 4.5 16H4C3.30938 16 2.75 15.4406 2.75 14.75V11.25C2.75 11.2219 2.75 11.1906 2.75312 11.1625V8.9875H1.75C1.1875 8.9875 0.75 8.55 0.75 7.98438C0.75 7.70312 0.84375 7.45312 1.0625 7.23438L9.075 0.25C9.29375 0.03125 9.54375 0 9.7625 0C9.98125 0 10.2312 0.0625 10.4187 0.21875L18.4 7.23438C18.65 7.45312 18.775 7.70312 18.7437 7.98438Z" fill="#9CA3AF"/>
</svg>
