<svg width="15" height="15" viewBox="0 0 15 15" fill="none" xmlns="http://www.w3.org/2000/svg">
<path d="M12.9062 3.375C12.9062 3.14294 12.8141 2.92038 12.65 2.75628C12.4859 2.59219 12.2633 2.5 12.0312 2.5C11.7992 2.5 11.5766 2.59219 11.4125 2.75628C11.2484 2.92038 11.1562 3.14294 11.1562 3.375C11.1562 3.60706 11.2484 3.82962 11.4125 3.99372C11.5766 4.15781 11.7992 4.25 12.0312 4.25C12.2633 4.25 12.4859 4.15781 12.65 3.99372C12.8141 3.82962 12.9062 3.60706 12.9062 3.375ZM9.40625 3.375C9.40625 2.67881 9.68281 2.01113 10.1751 1.51884C10.6674 1.02656 11.3351 0.75 12.0312 0.75C12.7274 0.75 13.3951 1.02656 13.8874 1.51884C14.3797 2.01113 14.6562 2.67881 14.6562 3.375C14.6562 4.07119 14.3797 4.73887 13.8874 5.23116C13.3951 5.72344 12.7274 6 12.0312 6C11.3351 6 10.6674 5.72344 10.1751 5.23116C9.68281 4.73887 9.40625 4.07119 9.40625 3.375ZM4.59375 2.5C3.86914 2.5 3.28125 3.08789 3.28125 3.8125V8.31055C3.28125 8.78359 3.08711 9.18281 2.86289 9.47266C2.57578 9.84453 2.40625 10.3066 2.40625 10.8125C2.40625 12.0211 3.38516 13 4.59375 13C5.80234 13 6.78125 12.0211 6.78125 10.8125C6.78125 10.3066 6.61172 9.84453 6.32461 9.47539C6.10039 9.18555 5.90625 8.78633 5.90625 8.31328V3.8125C5.90625 3.08789 5.31836 2.5 4.59375 2.5ZM1.53125 3.8125C1.53125 2.12266 2.90117 0.75 4.59375 0.75C6.28633 0.75 7.65625 2.11992 7.65625 3.8125V8.31055C7.65625 8.31328 7.65898 8.31875 7.66172 8.32695C7.66719 8.34336 7.68359 8.3707 7.7082 8.40352C8.225 9.0707 8.53125 9.90742 8.53125 10.8125C8.53125 12.9863 6.76758 14.75 4.59375 14.75C2.41992 14.75 0.65625 12.9863 0.65625 10.8125C0.65625 9.90469 0.9625 9.06797 1.4793 8.40352C1.50391 8.3707 1.52031 8.34336 1.52578 8.32695C1.52852 8.31875 1.53125 8.31328 1.53125 8.31055V3.8125ZM5.90625 10.8125C5.90625 11.5371 5.31836 12.125 4.59375 12.125C3.86914 12.125 3.28125 11.5371 3.28125 10.8125C3.28125 10.241 3.64766 9.7543 4.15625 9.57383V8.1875C4.15625 7.94688 4.35313 7.75 4.59375 7.75C4.83437 7.75 5.03125 7.94688 5.03125 8.1875V9.57383C5.53984 9.7543 5.90625 10.241 5.90625 10.8125Z" fill="#9CA3AF"/>
</svg>
