<svg width="24" height="19" viewBox="0 0 24 19" fill="none" xmlns="http://www.w3.org/2000/svg">
<path d="M15.375 0.25C13.1355 0.25 9.75 1.375 9.75 1.375V5.875C11.4375 5.875 12.4219 6.4375 13.4062 7C14.3906 7.5625 15.375 8.125 17.0625 8.125C19.0453 8.125 23.25 7.5625 23.25 4.75C23.25 1.9375 18.75 0.25 15.375 0.25ZM5.25 3.625C5.25 4.86602 6.25898 5.875 7.5 5.875H8.625V1.375H7.5C6.25898 1.375 5.25 2.38398 5.25 3.625ZM10.875 18.25C14.25 18.25 18.75 16.5625 18.75 13.75C18.75 10.9375 14.5453 10.375 12.5625 10.375C10.875 10.375 9.89062 10.9375 8.90625 11.5C7.92188 12.0625 6.9375 12.625 5.25 12.625V17.125C5.25 17.125 8.63555 18.25 10.875 18.25ZM0.75 14.875C0.75 16.116 1.75898 17.125 3 17.125H4.125V12.625H3C1.75898 12.625 0.75 13.634 0.75 14.875Z" fill="#D1D5DB"/>
</svg>
