<svg width="8" height="15" viewBox="0 0 8 15" fill="none" xmlns="http://www.w3.org/2000/svg">
<path d="M3.98438 2.5C3.25977 2.5 2.67188 3.08789 2.67188 3.8125V8.31055C2.67188 8.78359 2.47773 9.18281 2.25352 9.47266C1.96641 9.84453 1.79688 10.3066 1.79688 10.8125C1.79688 12.0211 2.77578 13 3.98438 13C5.19297 13 6.17188 12.0211 6.17188 10.8125C6.17188 10.3066 6.00234 9.84453 5.71523 9.47539C5.49102 9.18555 5.29688 8.78633 5.29688 8.31328V3.8125C5.29688 3.08789 4.70898 2.5 3.98438 2.5ZM0.921875 3.8125C0.921875 2.12266 2.2918 0.75 3.98438 0.75C5.67695 0.75 7.04688 2.11992 7.04688 3.8125V8.31055C7.04688 8.31328 7.04961 8.31875 7.05234 8.32695C7.05781 8.34336 7.07422 8.3707 7.09883 8.40352C7.61562 9.0707 7.92188 9.90742 7.92188 10.8125C7.92188 12.9863 6.1582 14.75 3.98438 14.75C1.81055 14.75 0.046875 12.9863 0.046875 10.8125C0.046875 9.90469 0.353125 9.06797 0.869922 8.40352C0.894531 8.3707 0.910937 8.34336 0.916406 8.32695C0.919141 8.31875 0.921875 8.31328 0.921875 8.31055V3.8125ZM5.29688 10.8125C5.29688 11.5371 4.70898 12.125 3.98438 12.125C3.25977 12.125 2.67188 11.5371 2.67188 10.8125C2.67188 10.241 3.03828 9.7543 3.54688 9.57383V6.4375C3.54688 6.19688 3.74375 6 3.98438 6C4.225 6 4.42188 6.19688 4.42188 6.4375V9.57383C4.93047 9.7543 5.29688 10.241 5.29688 10.8125Z" fill="white"/>
</svg>
