<svg width="16" height="21" viewBox="0 0 16 21" fill="none" xmlns="http://www.w3.org/2000/svg">
<path d="M8 0.5C6.36719 0.5 4.97656 1.54297 4.46484 3H3C1.62109 3 0.5 4.12109 0.5 5.5V18C0.5 19.3789 1.62109 20.5 3 20.5H13C14.3789 20.5 15.5 19.3789 15.5 18V5.5C15.5 4.12109 14.3789 3 13 3H11.5352C11.0234 1.54297 9.63281 0.5 8 0.5ZM8 3C8.33152 3 8.64946 3.1317 8.88388 3.36612C9.1183 3.60054 9.25 3.91848 9.25 4.25C9.25 4.58152 9.1183 4.89946 8.88388 5.13388C8.64946 5.3683 8.33152 5.5 8 5.5C7.66848 5.5 7.35054 5.3683 7.11612 5.13388C6.8817 4.89946 6.75 4.58152 6.75 4.25C6.75 3.91848 6.8817 3.60054 7.11612 3.36612C7.35054 3.1317 7.66848 3 8 3ZM3.3125 11.125C3.3125 10.8764 3.41127 10.6379 3.58709 10.4621C3.7629 10.2863 4.00136 10.1875 4.25 10.1875C4.49864 10.1875 4.7371 10.2863 4.91291 10.4621C5.08873 10.6379 5.1875 10.8764 5.1875 11.125C5.1875 11.3736 5.08873 11.6121 4.91291 11.7879C4.7371 11.9637 4.49864 12.0625 4.25 12.0625C4.00136 12.0625 3.7629 11.9637 3.58709 11.7879C3.41127 11.6121 3.3125 11.3736 3.3125 11.125ZM7.375 10.5H12.375C12.7188 10.5 13 10.7812 13 11.125C13 11.4688 12.7188 11.75 12.375 11.75H7.375C7.03125 11.75 6.75 11.4688 6.75 11.125C6.75 10.7812 7.03125 10.5 7.375 10.5ZM3.3125 14.875C3.3125 14.6264 3.41127 14.3879 3.58709 14.2121C3.7629 14.0363 4.00136 13.9375 4.25 13.9375C4.49864 13.9375 4.7371 14.0363 4.91291 14.2121C5.08873 14.3879 5.1875 14.6264 5.1875 14.875C5.1875 15.1236 5.08873 15.3621 4.91291 15.5379C4.7371 15.7137 4.49864 15.8125 4.25 15.8125C4.00136 15.8125 3.7629 15.7137 3.58709 15.5379C3.41127 15.3621 3.3125 15.1236 3.3125 14.875ZM6.75 14.875C6.75 14.5312 7.03125 14.25 7.375 14.25H12.375C12.7188 14.25 13 14.5312 13 14.875C13 15.2188 12.7188 15.5 12.375 15.5H7.375C7.03125 15.5 6.75 15.2188 6.75 14.875Z" fill="#BC2024"/>
</svg>
