<svg width="26" height="19" viewBox="0 0 26 19" fill="none" xmlns="http://www.w3.org/2000/svg">
<path d="M4.25 2C4.25 1.30859 4.80859 0.75 5.5 0.75H6.75C7.44141 0.75 8 1.30859 8 2V8.25V10.75V17C8 17.6914 7.44141 18.25 6.75 18.25H5.5C4.80859 18.25 4.25 17.6914 4.25 17V14.5H3C2.30859 14.5 1.75 13.9414 1.75 13.25V10.75C1.05859 10.75 0.5 10.1914 0.5 9.5C0.5 8.80859 1.05859 8.25 1.75 8.25V5.75C1.75 5.05859 2.30859 4.5 3 4.5H4.25V2ZM21.75 2V4.5H23C23.6914 4.5 24.25 5.05859 24.25 5.75V8.25C24.9414 8.25 25.5 8.80859 25.5 9.5C25.5 10.1914 24.9414 10.75 24.25 10.75V13.25C24.25 13.9414 23.6914 14.5 23 14.5H21.75V17C21.75 17.6914 21.1914 18.25 20.5 18.25H19.25C18.5586 18.25 18 17.6914 18 17V10.75V8.25V2C18 1.30859 18.5586 0.75 19.25 0.75H20.5C21.1914 0.75 21.75 1.30859 21.75 2ZM16.75 8.25V10.75H9.25V8.25H16.75Z" fill="#1A1A1A"/>
</svg>
