<svg width="15" height="15" viewBox="0 0 15 15" fill="none" xmlns="http://www.w3.org/2000/svg">
<path d="M10.6676 1.27774L9.3442 2.60118L12.8989 6.15587L14.2223 4.83243C14.9059 4.14883 14.9059 3.04141 14.2223 2.35782L13.145 1.27774C12.4614 0.594147 11.354 0.594147 10.6704 1.27774H10.6676ZM8.72623 3.21915L2.3524 9.59571C2.06802 9.88008 1.86021 10.2328 1.74537 10.6184L0.777398 13.9078C0.709039 14.1402 0.77193 14.3891 0.941461 14.5586C1.11099 14.7281 1.35982 14.791 1.58951 14.7254L4.87896 13.7574C5.26451 13.6426 5.61724 13.4348 5.90162 13.1504L12.2809 6.77383L8.72623 3.21915Z" fill="#FCE007"/>
</svg>
